<?xml version="1.0" encoding="UTF-8"?>
<svg id="Layer_2" data-name="Layer 2" xmlns="http://www.w3.org/2000/svg" xmlns:xlink="http://www.w3.org/1999/xlink" viewBox="0 0 454.91 138.44">
  <defs>
    <style>
      .cls-1 {
        fill: #fff;
      }

      .cls-2 {
        letter-spacing: -.03em;
      }

      .cls-2, .cls-3, .cls-4 {
        fill: #123047;
      }

      .cls-2, .cls-4 {
        font-family: Gotham-Bold, Gotham;
        font-size: 51.24px;
        font-weight: 700;
      }

      .cls-4 {
        letter-spacing: -.04em;
      }

      .cls-5 {
        fill: none;
        stroke: #123047;
        stroke-width: 2.21px;
      }

      .cls-6 {
        mask: url(#mask);
      }

      .cls-7 {
        filter: url(#luminosity-invert-noclip);
      }
    </style>
    <filter id="luminosity-invert-noclip" x="0" y="4.26" width="87.18" height="87.18" color-interpolation-filters="sRGB" filterUnits="userSpaceOnUse">
      <feColorMatrix result="cm" values="-1 0 0 0 1 0 -1 0 0 1 0 0 -1 0 1 0 0 0 1 0"/>
      <feFlood flood-color="#fff" result="bg"/>
      <feBlend in="cm" in2="bg"/>
    </filter>
    <mask id="mask" x="0" y="4.26" width="87.18" height="87.18" maskUnits="userSpaceOnUse">
      <g class="cls-7">
        <path class="cls-1" d="m59.5,71.67c.53-.89,1.16-1.71,1.77-2.54,1.47-1.98,2.97-3.94,4.36-5.97.31-.48.66-.95.88-1.48.1-.21-.02-.43-.08-.64-.71-1.82-1.56-3.57-2.22-5.41-.21-.54-.22-1.13-.2-1.7.07-1.53.17-3.06.3-4.59.17,1.64.26,3.28.44,4.92.59-1.04.84-2.24,1-3.42.22-1.75.15-3.61-.66-5.21-.85-1.76-2.58-3.03-4.49-3.41-.87-.16-1.77-.08-2.64.04-2.15.27-4.31.17-6.47.14-1.72.07-3.47.07-5.15-.35-1.17-.29-2.31-.82-3.17-1.69-.81-.78-1.33-1.78-1.98-2.68-.62-.89-1.31-1.72-1.97-2.57-.82-1.09-1.51-2.27-2.11-3.49.6-.29,1.33-.46,1.72-1.05.21-.29.1-.73-.24-.86-.87-.37-1.86-.31-2.78-.21-.27-.2-.56-.38-.85-.55l.14-.28c1.07.49,2.4.66,3.43,0,1.1-.64,1.68-1.93,1.61-3.17.91.74,2.23,1.05,3.31.49,1.12-.5,1.55-1.76,1.73-2.89.96-.22,1.93-.55,2.67-1.22.74-.66,1.35-1.45,1.92-2.26.36-.55.78-1.1.86-1.78-.61-.19-1.04.36-1.36.78-.56.8-1.23,1.53-1.99,2.15-.2-1.45.38-3.03,1.62-3.87.33-.23.78-.49.75-.95,0-.28-.32-.26-.5-.15-1.15.59-2.17,1.52-2.66,2.73-.38.9-.39,1.9-.18,2.84-.36.13-.73.26-1.1.36-.03-.47-.08-.94-.16-1.4l-.33-.17c-.15.13-.29.27-.43.42.06.44.12.89.14,1.34-1.62.44-3.3.6-4.91,1.08-.23-.34-.3-1-.81-.97-.51.32-.16.89.04,1.29-1.39.71-2.71,1.63-3.68,2.86-.2.3-.52.47-.84.61.13-1.17.45-2.33,1.06-3.34.46-.78,1.14-1.4,1.73-2.07.86-.94,1.84-1.78,2.61-2.8.59-.76.85-1.71,1.04-2.64.12-.59.17-1.2.06-1.79-.32-.06-.58.13-.62.45-.17.85-.31,1.72-.71,2.5-.35.72-.9,1.31-1.43,1.91-.52-.74-.7-1.71-.38-2.57.13-.43.48-.74.71-1.11.03-.27-.14-.6-.44-.57-.86.68-1.42,1.79-1.31,2.91.04.73.42,1.37.8,1.97-.95.92-2,1.75-2.76,2.84-.22-.88-.04-1.88.62-2.53.24-.19.18-.58-.04-.76-.28-.11-.46.15-.63.32-.58.63-.95,1.47-.94,2.33,0,.56.21,1.08.43,1.59-.58,1.11-.98,2.32-1.07,3.57-.53-.06-1.05-.37-1.21-.91-.35-1.11-.04-2.32.52-3.31.12-.24.35-.53.16-.8-.09-.26-.49-.24-.59.01-.75,1.24-1.39,2.68-1.18,4.17.08.64.52,1.14.95,1.6-.58.1-1.24,0-1.61-.51-.76-1.02-.71-2.39-.37-3.55.13-.35-.23-.6-.54-.61-.48,1.18-.67,2.51-.37,3.76.28,1.17,1.4,2.11,2.62,2.07.59,0,1.13-.27,1.64-.54.04.26.07.52.12.78-1.04.46-2.04,1.01-3.13,1.37-1.41.47-2.81,1-4.2,1.51-.18.09-.45.14-.48.38-.04.37-.11.8.16,1.1.32.38.69.78,1.2.89,1.81.48,3.62.95,5.44,1.41.16.05.42.09.4.32.16,1.54-.25,3.06-.64,4.54-.48,1.56-.6,3.3.05,4.83-1.06-.74-2.13-1.48-3.19-2.22-.55-.4-1.27-.37-1.92-.3-1.15.16-2.25.56-3.32,1.02-1.6.7-3.14,1.55-4.54,2.58-.71.54-1.24,1.6-.76,2.45.43.93.86,1.87,1.28,2.81.45-.24.9-.49,1.34-.74-.4-.29-.84-.66-.82-1.2-.05-.78.79-1.47,1.54-1.2.55.14.84.68.91,1.21.2-.34.52-.62.93-.66.85-.14,1.62.83,1.28,1.62-.15.52-.67.79-1.18.85.46.4.64,1.13.28,1.66-.38.68-1.46.75-1.94.14-.29-.3-.28-.74-.29-1.13-.47.22-.93.43-1.4.65.43.97.95,1.9,1.4,2.86,1.36-.63,2.69-1.32,4.05-1.95,1.44,3.44,2.9,6.89,4.34,10.33-.63,2-1.26,4-1.87,6.01,1.5.55,3,1.11,4.51,1.65-.89.45-1.77.94-2.5,1.63-1.28,1.13-2.07,2.75-2.25,4.44,1.78-1.52,3.95-2.51,6.15-3.27,3.09-1.04,6.33-1.55,9.58-1.77,5.95-.39,11.92.09,17.82.9,1.66.24,3.33.51,5,.37-1.41-.37-2.86-.61-4.27-.99-1.24-.34-2.48-.68-3.74-.97.42-.13.92-.2,1.17-.6m-15.34-48.33c-.27.72-.7,1.51-1.52,1.71-.81.16-1.57-.34-2.14-.87,1.2-.32,2.42-.61,3.65-.83m-5.04,1.3c.07.98-.02,2.13-.83,2.8-.72.58-1.73.43-2.54.15.82-1.26,1.98-2.34,3.37-2.95m-6.54,45.02c-.77.25-1.65-.26-1.92-1.01-.35-.84.09-1.93.96-2.23,1-.43,2.2.47,2.16,1.54.07.76-.47,1.51-1.2,1.71m4.93-11.29c-.12,4.13-.5,8.24-.88,12.34-.64.14-1.28.28-1.92.44.57-1.59,1.17-3.17,1.72-4.77-1.4-.79-2.79-1.62-4.19-2.41-.2-.12-.43-.24-.51-.47-2.5-5.9-5-11.79-7.49-17.69.77-.29,1.54-.58,2.33-.79.35-.1.68.09.96.27.48.33.91.73,1.32,1.15,1.41,1.47,2.62,3.12,3.94,4.67.78.91,2.04,1.17,3.18,1.14-.83-.65-1.6-1.41-2.08-2.36-1.01-1.96-1.09-4.31-.6-6.43.12,3,1.1,5.95,2.79,8.43.45.7,1.11,1.31,1.24,2.17.25,1.43.18,2.88.18,4.32m9.29,12.08c-2.84-.22-5.71-.28-8.54.04.79-4.04,1.59-8.09,2.5-12.11.26-1.1.48-2.21.88-3.27,1.63.29,3.31.26,4.95.02,1.31-.16,2.62-.5,3.94-.35,1.05.1,1.99.75,2.58,1.6,1.01,1.44,1.53,3.15,2,4.82.19.56-.2,1.06-.49,1.49-1,1.37-2.22,2.55-3.42,3.73-1.42,1.39-2.89,2.71-4.39,4.01m9.96,1.44c-.99-.14-1.96-.38-2.94-.54-1.86-.33-3.74-.58-5.62-.79l-.08.15v-.2c.65-.05,1.25-.33,1.76-.74,1.72-1.34,3.31-2.83,4.87-4.35,1.4-1.41,2.86-2.79,4.05-4.39-.72-.91-1.25-1.97-1.65-3.06-.1-.79.21-1.58.56-2.28-1.59-.72-2.72-2.17-3.35-3.76-.61-1.53-.95-3.18-.96-4.83.81,3.44,2.62,6.65,5.24,9.04,1.38,1.48,2.62,3.1,3.67,4.83.37.69.9,1.5.5,2.29-.73,1.71-1.87,3.2-2.95,4.69-.99,1.34-2.04,2.64-3.09,3.93"/>
      </g>
    </mask>
  </defs>
  <g id="Layer_1-2" data-name="Layer 1">
    <line class="cls-5" x1="105.92" y1="105.87" x2="454.91" y2="105.87"/>
    <path class="cls-3" d="m446.37,138.2h3.11v-5.63l5.43-8.5h-3.53l-3.43,5.67-3.37-5.67h-3.63l5.43,8.56v5.57Zm-22.47,0h10.76v-2.77h-7.67v-2.97h6.66v-2.77h-6.66v-2.87h7.57v-2.77h-10.66v14.13Zm-16.45-7.27v-4.06h3.09c1.51,0,2.44.69,2.44,2.02v.04c0,1.19-.87,2-2.38,2h-3.15Zm-3.11,7.27h3.11v-4.52h2.44l3.03,4.52h3.63l-3.45-5.05c1.8-.67,3.03-2.1,3.03-4.38v-.04c0-1.33-.42-2.44-1.21-3.23-.93-.93-2.32-1.43-4.12-1.43h-6.46v14.13Zm-16.45-7.27v-4.06h3.09c1.51,0,2.44.69,2.44,2.02v.04c0,1.19-.87,2-2.38,2h-3.15Zm-3.11,7.27h3.11v-4.52h2.44l3.03,4.52h3.63l-3.45-5.05c1.8-.67,3.03-2.1,3.03-4.38v-.04c0-1.33-.42-2.44-1.21-3.23-.93-.93-2.32-1.43-4.12-1.43h-6.46v14.13Zm-14.33.22c3.8,0,6.2-2.1,6.2-6.38v-7.97h-3.11v8.09c0,2.24-1.15,3.39-3.05,3.39s-3.05-1.19-3.05-3.49v-7.99h-3.11v8.07c0,4.16,2.32,6.28,6.12,6.28m-18.75-.02c3.05,0,5.19-1.57,5.19-4.38v-.04c0-2.46-1.62-3.49-4.48-4.24-2.44-.63-3.05-.93-3.05-1.86v-.04c0-.69.63-1.23,1.82-1.23s2.42.52,3.67,1.39l1.62-2.34c-1.43-1.15-3.19-1.8-5.25-1.8-2.89,0-4.95,1.7-4.95,4.26v.04c0,2.81,1.84,3.59,4.68,4.32,2.36.61,2.85,1.01,2.85,1.8v.04c0,.83-.77,1.33-2.04,1.33-1.62,0-2.95-.67-4.22-1.72l-1.84,2.2c1.7,1.51,3.86,2.26,6,2.26m-34.26-.2h3.11v-5.47h6.74v-2.83h-6.74v-3.01h7.65v-2.83h-10.76v14.13Zm-15.22-2.62c-2.5,0-4.28-2.02-4.28-4.44v-.04c0-2.42,1.74-4.4,4.24-4.4s4.28,2.02,4.28,4.44v.04c0,2.42-1.74,4.4-4.24,4.4m-.04,2.87c4.36,0,7.53-3.29,7.53-7.31v-.04c0-4.02-3.13-7.27-7.49-7.27s-7.53,3.29-7.53,7.31v.04c0,4.02,3.13,7.27,7.49,7.27m-33.33-.24h3.11v-5.63l5.43-8.5h-3.53l-3.43,5.67-3.37-5.67h-3.63l5.43,8.56v5.57Zm-18.73,0h3.11v-11.26h4.3v-2.87h-11.71v2.87h4.3v11.26Zm-14.9,0h3.11v-14.13h-3.11v14.13Zm-13,.2c3.05,0,5.19-1.57,5.19-4.38v-.04c0-2.46-1.62-3.49-4.48-4.24-2.44-.63-3.05-.93-3.05-1.86v-.04c0-.69.63-1.23,1.82-1.23s2.42.52,3.67,1.39l1.61-2.34c-1.43-1.15-3.19-1.8-5.25-1.8-2.89,0-4.95,1.7-4.95,4.26v.04c0,2.81,1.84,3.59,4.68,4.32,2.36.61,2.85,1.01,2.85,1.8v.04c0,.83-.77,1.33-2.04,1.33-1.61,0-2.95-.67-4.22-1.72l-1.84,2.2c1.7,1.51,3.86,2.26,6,2.26m-21.48-7.47v-4.06h3.09c1.51,0,2.44.69,2.44,2.02v.04c0,1.19-.87,2-2.38,2h-3.15Zm-3.11,7.27h3.11v-4.52h2.44l3.03,4.52h3.63l-3.45-5.05c1.8-.67,3.03-2.1,3.03-4.38v-.04c0-1.33-.42-2.44-1.21-3.23-.93-.93-2.32-1.43-4.12-1.43h-6.46v14.13Zm-18.49,0h10.76v-2.77h-7.67v-2.97h6.66v-2.77h-6.66v-2.87h7.57v-2.77h-10.66v14.13Zm-15.6.1h2.75l5.71-14.23h-3.35l-3.69,9.95-3.69-9.95h-3.43l5.71,14.23Zm-16.11-.1h3.11v-14.13h-3.11v14.13Zm-21.05,0h3.07v-8.98l6.84,8.98h2.64v-14.13h-3.07v8.7l-6.62-8.7h-2.87v14.13Zm-14.33.22c3.8,0,6.2-2.1,6.2-6.38v-7.97h-3.11v8.09c0,2.24-1.15,3.39-3.05,3.39s-3.05-1.19-3.05-3.49v-7.99h-3.11v8.07c0,4.16,2.32,6.28,6.12,6.28"/>
    <text class="cls-4" transform="translate(103.18 87.57)"><tspan x="0" y="0">STUDIO</tspan></text>
    <text class="cls-2" transform="translate(101.95 43.55)"><tspan x="0" y="0">TELEVISION</tspan></text>
    <g class="cls-6">
      <path class="cls-3" d="m43.59,4.26C19.52,4.26,0,23.77,0,47.85s19.52,43.59,43.59,43.59,43.59-19.52,43.59-43.59S67.66,4.26,43.59,4.26"/>
    </g>
  </g>
</svg>