<?xml version="1.0" encoding="UTF-8"?>
<svg id="Layer_2" data-name="Layer 2" xmlns="http://www.w3.org/2000/svg" viewBox="0 0 108.88 49.25">
  <defs>
    <style>
      .cls-1 {
        font-size: 15.86px;
      }

      .cls-1, .cls-2 {
        fill: #003e7e;
        font-family: BakerSignetStd, 'Baker Signet Std';
      }

      .cls-3 {
        fill: none;
        stroke: #003b78;
        stroke-width: .99px;
      }

      .cls-4 {
        fill: #c2a204;
      }

      .cls-2 {
        font-size: 7.99px;
      }
    </style>
  </defs>
  <g id="Layer_1-2" data-name="Layer 1">
    <text class="cls-1" transform="translate(27.27 16.67)"><tspan x="0" y="0">TELEVISION</tspan></text>
    <text class="cls-1" transform="translate(95.09 16.67)"><tspan x="0" y="0"> </tspan></text>
    <text class="cls-1" transform="translate(27.27 30.55)"><tspan x="0" y="0">STUDIO</tspan></text>
    <text class="cls-1" transform="translate(104.77 30.55)"><tspan x="0" y="0"> </tspan></text>
    <line class="cls-3" x1="27.27" y1="36.15" x2="104.97" y2="36.15"/>
    <text class="cls-2" transform="translate(27.27 46.93)"><tspan x="0" y="0">UNIVERSITY OF SURREY</tspan></text>
    <path class="cls-4" d="m17.92,26.69c-.46-.07-.9-.17-1.36-.25-.86-.15-1.73-.27-2.6-.36l-.04.07s0-.06,0-.09c.3-.02.58-.15.81-.34.79-.62,1.53-1.31,2.25-2.01.65-.65,1.32-1.29,1.87-2.03-.33-.42-.58-.91-.76-1.41-.04-.36.1-.73.26-1.05-.73-.33-1.26-1-1.55-1.74-.28-.71-.44-1.47-.45-2.23.37,1.59,1.21,3.07,2.42,4.17.64.68,1.21,1.43,1.69,2.23.17.32.42.69.23,1.06-.34.79-.86,1.48-1.36,2.17-.46.62-.94,1.22-1.43,1.82m-4.6-.67c-1.31-.1-2.64-.13-3.95.02.37-1.87.74-3.74,1.15-5.59.12-.51.22-1.02.41-1.51.76.14,1.53.12,2.29,0,.6-.07,1.21-.23,1.82-.16.49.05.92.34,1.19.74.47.66.7,1.46.92,2.23.09.26-.09.49-.23.69-.46.63-1.02,1.18-1.58,1.72-.65.64-1.34,1.25-2.03,1.85m-4.29-5.58c-.06,1.91-.23,3.8-.41,5.7-.3.06-.59.13-.89.2.26-.74.54-1.47.8-2.2-.65-.37-1.29-.75-1.94-1.11-.09-.06-.2-.11-.23-.22-1.15-2.72-2.31-5.45-3.46-8.17.35-.13.71-.27,1.08-.36.16-.05.32.04.45.12.22.15.42.34.61.53.65.68,1.21,1.44,1.82,2.16.36.42.94.54,1.47.52-.38-.3-.74-.65-.96-1.09-.47-.91-.51-1.99-.28-2.97.06,1.39.51,2.75,1.29,3.9.21.32.51.6.58,1,.12.66.08,1.33.08,2m-2.28,5.22c-.36.11-.76-.12-.89-.47-.16-.39.04-.89.44-1.03.46-.2,1.02.22,1,.71.03.35-.22.7-.56.79m3.02-20.8c.04.45,0,.98-.38,1.29-.33.27-.8.2-1.18.07.38-.58.92-1.08,1.56-1.36m2.33-.6c-.13.33-.33.7-.7.79-.38.07-.73-.16-.99-.4.56-.15,1.12-.28,1.69-.39m7.09,22.33c.24-.41.54-.79.82-1.17.68-.91,1.37-1.82,2.01-2.76.15-.22.3-.44.41-.68.05-.1-.01-.2-.04-.29-.33-.84-.72-1.65-1.03-2.5-.1-.25-.1-.52-.09-.78.03-.71.08-1.41.14-2.12.08.76.12,1.52.2,2.27.27-.48.39-1.04.46-1.58.1-.81.07-1.67-.3-2.41-.39-.81-1.19-1.4-2.07-1.58-.4-.07-.82-.04-1.22.02-.99.12-1.99.08-2.99.06-.8.04-1.6.03-2.38-.16-.54-.13-1.07-.38-1.47-.78-.37-.36-.62-.82-.92-1.24-.29-.41-.61-.79-.91-1.19-.38-.5-.7-1.05-.98-1.61.28-.13.62-.21.8-.49.1-.13.04-.34-.11-.4-.4-.17-.86-.14-1.29-.1-.13-.09-.26-.18-.39-.26.02-.03.05-.1.07-.13.49.23,1.11.31,1.58,0,.51-.3.78-.89.74-1.47.42.34,1.03.49,1.53.23.52-.23.72-.81.8-1.33.44-.1.89-.25,1.23-.57.34-.3.62-.67.89-1.04.17-.25.36-.51.4-.82-.28-.08-.48.17-.63.36-.26.37-.57.71-.92.99-.1-.67.18-1.4.75-1.79.15-.11.36-.22.35-.44,0-.13-.15-.12-.23-.07-.53.27-1,.7-1.23,1.26-.18.42-.18.88-.08,1.31-.17.06-.34.12-.51.17-.01-.22-.04-.43-.07-.65-.04-.02-.11-.06-.15-.08-.07.06-.14.13-.2.19.03.2.05.41.06.62-.75.2-1.52.28-2.27.5-.11-.16-.14-.46-.37-.45-.23.15-.08.41.02.6-.64.33-1.25.75-1.7,1.32-.09.14-.24.22-.39.28.06-.54.21-1.08.49-1.54.21-.36.52-.65.8-.96.4-.44.85-.82,1.21-1.29.27-.35.39-.79.48-1.22.06-.27.08-.55.03-.83-.15-.03-.27.06-.29.21-.08.39-.14.79-.33,1.15-.16.33-.42.61-.66.88-.24-.34-.32-.79-.18-1.19.06-.2.22-.34.33-.51.01-.12-.06-.28-.21-.26-.4.32-.66.83-.61,1.34.02.34.19.63.37.91-.44.42-.93.81-1.28,1.31-.1-.41-.02-.87.29-1.17.11-.09.08-.27-.02-.35-.13-.05-.21.07-.29.15-.27.29-.44.68-.43,1.08,0,.26.1.5.2.73-.27.51-.45,1.07-.49,1.65-.25-.03-.48-.17-.56-.42-.16-.51-.02-1.07.24-1.53.06-.11.16-.25.08-.37-.04-.12-.23-.11-.27,0-.35.57-.64,1.24-.55,1.93.04.3.24.53.44.74-.27.04-.58,0-.74-.24-.35-.47-.33-1.1-.17-1.64.06-.16-.11-.28-.25-.28-.22.54-.31,1.16-.17,1.74.13.54.65.98,1.21.96.27,0,.52-.12.76-.25.02.12.04.24.05.36-.48.21-.94.47-1.44.63-.65.21-1.3.46-1.94.7-.08.04-.21.06-.22.17-.02.17-.05.37.07.51.15.18.32.36.56.41.84.22,1.67.44,2.51.65.08.02.2.04.18.15.07.71-.12,1.42-.3,2.1-.22.72-.28,1.53.02,2.23-.49-.34-.98-.68-1.47-1.03-.25-.19-.59-.17-.89-.14-.53.08-1.04.26-1.53.47-.74.32-1.45.71-2.1,1.19-.33.25-.57.74-.35,1.13.2.43.4.86.59,1.3.21-.11.41-.23.62-.34-.18-.13-.39-.31-.38-.56-.02-.36.37-.68.71-.56.25.07.39.32.42.56.09-.15.24-.29.43-.3.39-.06.75.38.59.75-.07.24-.31.37-.54.39.21.19.3.52.13.77-.18.31-.67.35-.89.06-.13-.14-.13-.34-.13-.52-.22.1-.43.2-.65.3.2.45.44.88.65,1.32.63-.29,1.25-.61,1.87-.9.67,1.59,1.34,3.18,2,4.77-.29.92-.58,1.85-.86,2.78.69.26,1.39.51,2.08.76-.41.21-.82.44-1.16.75-.59.52-.95,1.27-1.04,2.05.82-.7,1.82-1.16,2.84-1.51,1.43-.48,2.93-.72,4.42-.82,2.75-.18,5.51.04,8.24.42.76.11,1.54.23,2.31.17-.65-.17-1.32-.28-1.97-.46-.57-.16-1.15-.32-1.73-.45.19-.06.43-.09.54-.28"/>
  </g>
</svg>